:FULLY-SPECIFIED
:FORCE-ALL-JOINTS-BE-3DOF
:DEGREES
170
root 6.45273 16.1238 -25.6414 3.9992 28.9614 1.16514
lfemur -23.6307 26.9935 -13.0231
ltibia 39.1544 -0 0
lfoot -9.29874 2.54884 0.461065
ltoes 15.7351 -0 0
rfemur -21.984 -6.02986 -4.42062
rtibia 61.8108 -0 0
rfoot 2.60293 -25.6176 -0.0257643
rtoes 43.3693 -0 0
lowerback 1.07232 -4.97647 -1.33216
upperback 0.0462579 -6.64688 -2.68278
thorax -0.632312 -3.32736 -1.84973
lowerneck -9.93956 -7.07919 -1.04264
upperneck 1.96223 -9.58469 5.43271
head 2.70387 -4.58916 1.40396
lclavicle -1.04958e-013 -4.45278e-014 0
lhumerus -49.7115 -41.6768 114.524
lradius 51.9708 -0 0
lwrist 14.2578 0 0
lhand 37.9789 26.1631 0.0124534
lfingers 7.12502 -0 0
lthumb 60.6963 39.1649 0.00513217
rclavicle -1.04958e-013 -4.45278e-014 0
rhumerus -50.3463 -9.39044 -81.6027
rradius 93.5491 -0 0
rwrist -9.12887 0 0
rhand -25.2511 -25.4459 0.219617
rfingers 7.12502 -0 0
rthumb 1.26645 -55.2373 0.224187
171
root 6.39106 16.1208 -25.6192 4.10993 28.1077 1.19366
lfemur -23.1191 25.7126 -11.5978
ltibia 39.0259 -0 0
lfoot -10.082 0.129323 0.494161
ltoes 12.6206 -0 0
rfemur -21.0582 -5.94483 -4.57645
rtibia 59.3473 -0 0
rfoot 0.810189 -25.5586 -0.0276091
rtoes 43.1528 -0 0
lowerback 0.757706 -4.64035 -1.17596
upperback 0.0393919 -6.18805 -2.96083
thorax -0.493909 -3.09982 -2.25168
lowerneck -9.98612 -7.08243 -0.742162
upperneck 2.0298 -9.62912 5.43147
head 2.71886 -4.60593 1.34752
lclavicle -1.04958e-013 -4.45278e-014 0
lhumerus -50.1691 -41.8766 114.628
lradius 52.0009 -0 0
lwrist 14.4441 0 0
lhand 38.144 26.4718 0.013343
lfingers 7.12502 -0 0
lthumb 60.836 39.3153 0.00549877
rclavicle -1.04958e-013 -4.45278e-014 0
rhumerus -50.5243 -6.77612 -82.9407
rradius 93.9407 -0 0
rwrist -8.00609 0 0
rhand -23.5293 -24.9228 0.235342
rfingers 7.12502 -0 0
rthumb 2.92867 -54.6842 0.240237
172
root 6.32939 16.1177 -25.5969 4.21932 27.254 1.22009
lfemur -22.6479 24.4208 -10.2
ltibia 38.8973 -0 0
lfoot -10.8659 -2.29042 0.494161
ltoes 9.5061 -0 0
rfemur -20.1328 -5.85731 -4.73086
rtibia 56.8838 -0 0
rfoot -0.982549 -25.4997 -0.0276091
rtoes 42.9364 -0 0
lowerback 0.444154 -4.30338 -1.02169
upperback 0.0302938 -5.72925 -3.2387
thorax -0.357136 -2.87133 -2.65298
lowerneck -10.0327 -7.08542 -0.44168
upperneck 2.09738 -9.67355 5.43019
head 2.73386 -4.62268 1.29107
lclavicle -1.04958e-013 -4.45278e-014 0
lhumerus -50.6286 -42.0757 114.733
lradius 52.0309 -0 0
lwrist 14.6304 0 0
lhand 38.3092 26.7804 0.013343
lfingers 7.12502 -0 0
lthumb 60.9757 39.4657 0.00549877
rclavicle -1.04958e-013 -4.45278e-014 0
rhumerus -50.7627 -4.16662 -84.2811
rradius 94.3324 -0 0
rwrist -6.88331 0 0
rhand -21.8075 -24.3994 0.235342
rfingers 7.12502 -0 0
rthumb 4.59098 -54.1308 0.240237
173
root 6.26772 16.1147 -25.5747 4.32745 26.4002 1.2445
lfemur -22.2158 23.119 -8.82758
ltibia 38.7688 -0 0
lfoot -11.6492 -4.70994 0.461065
ltoes 6.39159 -0 0
rfemur -19.2078 -5.76732 -4.8838
rtibia 54.4203 -0 0
rfoot -2.77529 -25.4407 -0.0257643
rtoes 42.7199 -0 0
lowerback 0.131647 -3.96558 -0.869324
upperback 0.0189683 -5.2705 -3.51644
thorax -0.221994 -2.64188 -3.05367
lowerneck -10.0793 -7.08816 -0.141193
upperneck 2.16498 -9.71798 5.42885
head 2.74889 -4.63942 1.23462
lclavicle -1.04958e-013 -4.45278e-014 0
lhumerus -51.09 -42.2741 114.841
lradius 52.061 -0 0
lwrist 14.8167 0 0
lhand 38.4743 27.0891 0.0124534
lfingers 7.12502 -0 0
lthumb 61.1154 39.6161 0.00513217
rclavicle -1.04958e-013 -4.45278e-014 0
rhumerus -51.0615 -1.56341 -85.6292
rradius 94.724 -0 0
rwrist -5.76053 0 0
rhand -20.0857 -23.8763 0.219617
rfingers 7.12502 -0 0
rthumb 6.2532 -53.5777 0.224187
174
root 6.20605 16.1116 -25.5525 4.43439 25.5464 1.26695
lfemur -21.8215 21.8082 -7.47869
ltibia 38.6402 -0 0
lfoot -12.4303 -7.12876 0.394939
ltoes 3.27707 -0 0
rfemur -18.2832 -5.67489 -5.03524
rtibia 51.9568 -0 0
rfoot -4.56802 -25.3819 -0.0220765
rtoes 42.5034 -0 0
lowerback -0.179836 -3.62695 -0.718872
upperback 0.00541946 -4.81181 -3.79407
thorax -0.0884856 -2.4115 -3.45374
lowerneck -10.1259 -7.09067 0.159298
upperneck 2.23258 -9.7624 5.42745
head 2.76393 -4.65615 1.17816
lclavicle -1.04958e-013 -4.45278e-014 0
lhumerus -51.5534 -42.4719 114.952
lradius 52.0911 -0 0
lwrist 15.003 0 0
lhand 38.6394 27.3978 0.0106742
lfingers 7.12502 -0 0
lthumb 61.2551 39.7664 0.00439898
rclavicle -1.04958e-013 -4.45278e-014 0
rhumerus -51.4213 1.03202 -86.9906
rradius 95.1157 -0 0
rwrist -4.63775 0 0
rhand -18.3642 -23.3538 0.188181
rfingers 7.12502 -0 0
rthumb 7.91519 -53.0253 0.1921
175
root 6.14438 16.1086 -25.5303 4.54022 24.6926 1.2875
lfemur -21.4637 20.4893 -6.15138
ltibia 38.5117 -0 0
lfoot -13.208 -9.54643 0.295912
ltoes 0.162553 -0 0
rfemur -17.359 -5.58004 -5.18514
rtibia 49.4932 -0 0
rfoot -6.36075 -25.3232 -0.0165492
rtoes 42.2869 -0 0
lowerback -0.490316 -3.28751 -0.570319
upperback -0.0103496 -4.3532 -4.07163
thorax 0.0433881 -2.18018 -3.8532
lowerneck -10.1725 -7.09293 0.459792
upperneck 2.30019 -9.80683 5.426
head 2.77899 -4.67286 1.1217
lclavicle -1.04958e-013 -4.45278e-014 0
lhumerus -52.0188 -42.6691 115.065
lradius 52.1212 -0 0
lwrist 15.1892 0 0
lhand 38.8045 27.7064 0.00800549
lfingers 7.12502 -0 0
lthumb 61.3947 39.9168 0.00329922
rclavicle -1.04958e-013 -4.45278e-014 0
rhumerus -51.8435 3.6181 -88.3708
rradius 95.5073 -0 0
rwrist -3.51496 0 0
rhand -16.643 -22.8326 0.141066
rfingers 7.12502 -0 0
rthumb 9.57678 -52.4741 0.144008
176
root 6.08271 16.1055 -25.5081 4.64501 23.8387 1.30618
lfemur -21.1412 19.163 -4.84381
ltibia 38.3831 -0 0
lfoot -13.9808 -11.9625 0.164179
ltoes -2.95196 0 0
rfemur -16.4352 -5.4828 -5.33345
rtibia 47.0297 -0 0
rfoot -8.15348 -25.2646 -0.009188
rtoes 42.0705 -0 0
lowerback -0.799814 -2.94728 -0.423658
upperback -0.0283361 -3.89466 -4.34915
thorax 0.173626 -1.94796 -4.25208
lowerneck -10.2192 -7.09495 0.76029
upperneck 2.36782 -9.85125 5.4245
head 2.79406 -4.68955 1.06523
lclavicle -1.04958e-013 -4.45278e-014 0
lhumerus -52.4863 -42.8655 115.181
lradius 52.1512 -0 0
lwrist 15.3755 0 0
lhand 38.9696 28.0151 0.00444738
lfingers 7.12502 -0 0
lthumb 61.5344 40.0671 0.00183288
rclavicle -1.04958e-013 -4.45278e-014 0
rhumerus -52.3299 6.19316 -89.7754
rradius 95.899 -0 0
rwrist -2.39218 0 0
rhand -14.9223 -22.313 0.0783185
rfingers 7.12502 -0 0
rthumb 11.2378 -51.9245 0.0799544
177
root 6.02104 16.1025 -25.4859 4.74882 22.9848 1.32304
lfemur -20.8532 17.8302 -3.55422
ltibia 38.2546 0 0
lfoot -14.7473 -14.3766 0
ltoes -6.06648 0 0
rfemur -15.5118 -5.38319 -5.48015
rtibia 44.5662 0 0
rfoot -9.94619 -25.2064 0
rtoes 41.854 0 0
lowerback -1.10835 -2.60626 -0.278881
upperback -0.0485382 -3.43622 -4.62668
thorax 0.302226 -1.71484 -4.65037
lowerneck -10.2658 -7.09673 1.06079
upperneck 2.43545 -9.89567 5.42295
head 2.80915 -4.70623 1.00875
lclavicle -1.04958e-013 -4.45278e-014 0
lhumerus -52.9557 -43.0613 115.299
lradius 52.1813 0 0
lwrist 15.5618 0 0
lhand 39.1347 28.3237 0
lfingers 7.12502 0 0
lthumb 61.6741 40.2175 0
rclavicle -1.04958e-013 -4.45278e-014 0
rhumerus -52.8828 8.75544 -91.2104
rradius 96.2906 0 0
rwrist -1.2694 0 0
rhand -13.2023 -21.7955 0
rfingers 7.12502 0 0
rthumb 12.8982 -411.377 0
178
root 5.9575 16.0636 -25.4691 4.93046 21.7997 1.59694
lfemur -18.8366 15.6252 -2.40512
ltibia 35.6962 -0 0
lfoot -14.9699 -15.2021 0.0160677
ltoes -0.642382 0 0
rfemur -15.8414 -5.81934 -5.84028
rtibia 44.3638 -0 0
rfoot -11.3195 -22.9582 -0.274328
rtoes 42.6504 -0 0
lowerback -1.32475 -2.59193 -0.373757
upperback -0.0859712 -3.4086 -4.79233
thorax 0.38264 -1.70228 -4.78065
lowerneck -10.4843 -6.70866 1.16112
upperneck 2.5596 -9.3986 5.34965
head 2.87626 -4.45436 0.995132
lclavicle -2.69353e-014 -4.6118e-014 0
lhumerus -53.0385 -42.933 115.055
lradius 52.3712 -0 0
lwrist 16.0414 0 0
lhand 39.1635 28.7304 0.00102401
lfingers 7.12502 -0 0
lthumb 61.6982 40.5946 0.000794071
rclavicle -2.69353e-014 -4.6118e-014 0
rhumerus -53.6883 11.8664 -89.6978
rradius 98.6807 -0 0
rwrist -2.18911 0 0
rhand -9.70409 -20.4457 0.427651
rfingers 7.12502 -0 0
rthumb 16.1971 -49.3026 0.622028
179
root 5.89395 16.0248 -25.4523 5.10459 20.6138 1.86463
lfemur -16.8861 13.3835 -1.34792
ltibia 33.1378 -0 0
lfoot -15.1928 -16.0276 0.0289261
ltoes 4.78172 -0 0
rfemur -16.1686 -6.25753 -6.19817
rtibia 44.1613 -0 0
rfoot -12.7025 -20.7041 -0.4945
rtoes 43.4468 -0 0
lowerback -1.54117 -2.57796 -0.468685
upperback -0.123483 -3.38109 -4.95799
thorax 0.463025 -1.68955 -4.91091
lowerneck -10.702 -6.32022 1.25988
upperneck 2.68293 -8.90138 5.27753
head 2.94329 -4.20247 0.981815
lclavicle -2.69353e-014 -4.6118e-014 0
lhumerus -53.1218 -42.805 114.812
lradius 52.5611 -0 0
lwrist 16.5209 0 0
lhand 39.1924 29.137 0.00184329
lfingers 7.12502 -0 0
lthumb 61.7223 40.9718 0.00142937
rclavicle -2.69353e-014 -4.6118e-014 0
rhumerus -54.419 14.9969 -88.2109
rradius 101.071 -0 0
rwrist -3.10882 0 0
rhand -6.19654 -19.0722 0.77203
rfingers 7.12502 -0 0
rthumb 19.5169 -47.1955 1.12326
